inDegrees=no
num_controls=7
num_derivatives=13
num_iterations=148
num_multipliers=7
num_parameters=0
num_slacks=7
num_states=26
objective=5.514727
objective_accelerations=0.606912
objective_balance=0.049051
objective_effort=0.503835
objective_height=4.272574
objective_ligament=0.082354
solver_duration=1762.669118
status=Solve_Succeeded
success=true
DataType=double
version=3
OpenSimVersion=4.4-2022-07-23-0e9fedc
endheader
time	/jointset/ground_pelvis/pelvis_tilt/value	/jointset/ground_pelvis/pelvis_tx/value	/jointset/ground_pelvis/pelvis_ty/value	/jointset/hip_l/hip_flexion_l/value	/jointset/hip_l/hip_adduction_l/value	/jointset/hip_l/hip_rotation_l/value	/jointset/back/lumbar_extension/value	/jointset/patellofemoral_l/patellar_flexion_l/value	/jointset/knee_l/knee_flexion_l/value	/jointset/knee_l/knee_adduction_l/value	/jointset/knee_l/knee_rotation_l/value	/jointset/ankle_l/ankle_angle_l/value	/jointset/subtalar_l/subtalar_angle_l/value	/jointset/ground_pelvis/pelvis_tilt/speed	/jointset/ground_pelvis/pelvis_tx/speed	/jointset/ground_pelvis/pelvis_ty/speed	/jointset/hip_l/hip_flexion_l/speed	/jointset/hip_l/hip_adduction_l/speed	/jointset/hip_l/hip_rotation_l/speed	/jointset/back/lumbar_extension/speed	/jointset/patellofemoral_l/patellar_flexion_l/speed	/jointset/knee_l/knee_flexion_l/speed	/jointset/knee_l/knee_adduction_l/speed	/jointset/knee_l/knee_rotation_l/speed	/jointset/ankle_l/ankle_angle_l/speed	/jointset/subtalar_l/subtalar_angle_l/speed	/forceset/tau_hip_flexion_l	/forceset/tau_hip_adduction_l	/forceset/tau_hip_rotation_l	/forceset/tau_knee_flexion_l	/forceset/tau_ankle_angle_l	/forceset/tau_subtalar_angle_l	/forceset/tau_lumbar_extension	lambda_cid13_p0	lambda_cid13_p1	lambda_cid13_p2	lambda_cid13_p3	lambda_cid13_p4	lambda_cid13_p5	lambda_cid14_p0	/jointset/ground_pelvis/pelvis_tilt/accel	/jointset/ground_pelvis/pelvis_tx/accel	/jointset/ground_pelvis/pelvis_ty/accel	/jointset/hip_l/hip_flexion_l/accel	/jointset/hip_l/hip_adduction_l/accel	/jointset/hip_l/hip_rotation_l/accel	/jointset/back/lumbar_extension/accel	/jointset/patellofemoral_l/patellar_flexion_l/accel	/jointset/knee_l/knee_flexion_l/accel	/jointset/knee_l/knee_adduction_l/accel	/jointset/knee_l/knee_rotation_l/accel	/jointset/ankle_l/ankle_angle_l/accel	/jointset/subtalar_l/subtalar_angle_l/accel	gamma_cid13_p0	gamma_cid13_p1	gamma_cid13_p2	gamma_cid13_p3	gamma_cid13_p4	gamma_cid13_p5	gamma_cid14_p0
0.5	-0.5018839209631581	-0.1087207086339614	0.7572590918740464	1.319222146160031	-0.3105413628085376	-0.07862097073973355	-0.3347431027532926	0.6088867520130441	0.6088867520130525	-0.1738876763984746	0.1731163646347836	-0.05208637402336964	-0.0666409219309112	-0.9063107313159986	-0.3555322473407738	-0.5095397656325505	2.518479837560457	-0.06520000022220444	0.5141929855842201	-0.6188636408461676	1.557611943144818	1.557611943145605	-0.003548711934218528	0.01125117336193344	0.006452670290797169	-0.07831936171557631	-0.273081819205972	0.01210461590319137	-0.01823834067017806	-0.1794145872371208	0.1846420254400851	0.04352771240293227	0.2365167284516534	20.01502199413455	-24.66136254792357	6.102506700667427	-6.670587714783653	-607.9708548771904	-60.55435579477842	-32.64266197784173	0.6767555156596301	0.7791840919954031	-0.2685289434879727	-1.650441592017627	0.4664700988901876	-0.178105385683163	1.866942574959756	-1.004646916044153	-1.004646916044184	0.02225977267623372	-0.08476736872620141	0.06291979317420678	0.4656514958039663	2.376852184720416e-08	-8.095257454510303e-07	1.331575237005902e-07	-1.586603583711659e-07	-1.852538789465162e-07	1.656480826798374e-07	-1.304388422382078e-07
0.51	-0.5109111574179012	-0.1122366460154471	0.7521513545969502	1.344320031747743	-0.311170970834462	-0.07348964269225344	-0.3408384956380963	0.6244106208667656	0.6244106208666961	-0.1739232761976638	0.1732261674382258	-0.05201904685394382	-0.06740176465183526	-0.8990129363044024	-0.3476227311685388	-0.5119027706321639	2.5007644357968	-0.06072395150685466	0.5120024867625118	-0.6001427312966779	1.546952369443698	1.546952369444135	-0.003565122684502577	0.01071205979434241	0.006996254653726468	-0.07385174145041935	-0.2823867727269169	0.01271725594127945	-0.01830501630095669	-0.1802334570412714	0.1863548899424465	0.04435694469814397	0.2435438298672848	20.28680622164045	-24.94640373811663	6.007817947887565	-6.884157701421132	-612.9251767012231	-60.26293594303711	-31.84407422035965	0.7748254136024353	0.8016788513907881	-0.2044841496972132	-1.882028465360641	0.4379276191756447	-0.2501831630768183	1.88549586708797	-1.128005492517314	-1.128005492569474	-0.01281985437662805	-0.03816850392761426	0.04760202392112668	0.4370404379363398	1.829875831235642e-08	-7.60394450424649e-07	1.380906321693812e-07	-1.522061821203185e-07	-1.727860277459875e-07	1.747496454913953e-07	-1.274720615418642e-07
0.52	-0.5198617091385966	-0.1156725195408987	0.7470231276955548	1.369230775518489	-0.3117558673009642	-0.0683823518395849	-0.3467445132829668	0.639821615404346	0.6398216154042629	-0.1739588857752994	0.1733306420754765	-0.05194677898767282	-0.06811798654089506	-0.8909737845050527	-0.3395194761339583	-0.5136376904919718	2.481051474160368	-0.05625768833871803	0.5093855466342705	-0.5809885928614434	1.535037079927701	1.535037079927789	-0.003550667654630364	0.01018554010065692	0.00744080965940711	-0.06939519534266153	-0.291691726247685	0.01332989597923312	-0.01837169193060655	-0.1810523268457023	0.188067754444676	0.04518617699320047	0.2505709312832029	20.54943754499828	-25.23155320764348	5.915100590821138	-7.064072300474018	-618.0097060126166	-60.01659589021614	-31.02695647274341	0.8250268732104763	0.8179318644647858	-0.1429119155267547	-2.049953566572489	0.4645129894477348	-0.2633936469896448	1.953588352108828	-1.255790079019565	-1.25579007901955	0.02843292870766385	-0.08224859394523064	0.04311392172487411	0.4634366643243479	1.271039992745149e-08	-7.085549306052658e-07	1.456287347967812e-07	-1.445672905822732e-07	-1.607872993946294e-07	1.822201667377095e-07	-1.241064271953678e-07
0.53	-0.5287283003995925	-0.1190264687498107	0.7418806986144163	1.393934650838429	-0.3122961806344316	-0.06330325044285003	-0.3524569239463699	0.6551072969817916	0.655107296981763	-0.1739941743276888	0.1734298441276063	-0.05187053219627568	-0.06878972322778031	-0.8822269166346383	-0.331244451268399	-0.5147414338752538	2.459401584163161	-0.05181541235846188	0.506358436449784	-0.5614386003832275	1.521898982548358	1.521898982548446	-0.003504591548475016	0.009666762434805671	0.007793563782588827	-0.06496219240295344	-0.3007631426497161	0.01376327431899513	-0.01847935486414026	-0.1819752087583936	0.1900147823831257	0.04582675216695747	0.2573644702502027	20.88934087129768	-25.45435695360943	5.819363786361988	-7.293705326705656	-622.9848052521289	-59.67156925221624	-30.19454900383083	0.9171386929107774	0.8361468443268429	-0.07813266738935344	-2.270820720471289	0.4326083913142876	-0.333944637173277	1.963945610510324	-1.372833052700904	-1.372833052700777	-0.007065427680260659	-0.03499065700265307	0.0291089421967648	0.4318134903002457	1.353252831359014e-09	-6.47045763251548e-07	1.827641082725097e-07	-1.307283307245868e-07	-1.516787057135047e-07	1.928889735322175e-07	-1.23634849473153e-07
